<svg width="50" height="50" viewBox="0 0 50 50" fill="none" xmlns="http://www.w3.org/2000/svg">
<circle cx="25" cy="25" r="25" fill="#3C8533"/>
<path d="M25.5159 36.8641C27.3948 36.9141 29.2519 36.4555 30.8884 35.5377C32.3489 34.7103 33.4826 33.4145 34.1034 31.8631L29.1322 29.3462C28.2981 30.9772 27.0817 31.7943 25.4829 31.7974C24.9558 31.8087 24.4322 31.7117 23.9447 31.5125C23.4572 31.3133 23.0165 31.0161 22.6503 30.6398C22.2573 30.2063 21.9548 29.6998 21.7603 29.1495C21.5658 28.5992 21.4832 28.0161 21.5172 27.4339C21.4838 26.8596 21.5669 26.2845 21.7616 25.7426C21.9562 25.2008 22.2584 24.7033 22.6503 24.2795C23.0188 23.9075 23.4604 23.6144 23.9476 23.4185C24.4348 23.2226 24.9573 23.128 25.4829 23.1406C27.0848 23.1406 28.3013 23.9561 29.1322 25.5872L34.1034 23.0703C33.4826 21.5188 32.3489 20.2231 30.8884 19.3957C29.2514 18.4791 27.3946 18.0207 25.5159 18.0693C23.6328 18.034 21.7678 18.4403 20.0726 19.2551C18.5234 19.9882 17.2206 21.1502 16.3211 22.6013C15.4216 24.0523 14.9636 25.7305 15.0023 27.4339C14.9679 29.1425 15.4271 30.8252 16.3257 32.2829C17.2242 33.7406 18.5244 34.9123 20.0726 35.6595C21.7643 36.4867 23.6304 36.9012 25.5159 36.8688" fill="#FFA300"/>
<path d="M30.1425 10.1858C30.1456 9.87173 30.1203 9.558 30.0669 9.24841C30.0598 9.20248 30.0395 9.15954 30.0086 9.12466C29.9776 9.08978 29.9373 9.06442 29.8923 9.05156C29.6499 9.01703 29.4054 8.9998 29.1605 9C28.0035 9.00061 26.8739 9.35002 25.9213 10.002C24.9687 10.654 24.2379 11.5778 23.8258 12.6512C23.1771 12.0187 22.3037 11.6651 21.3945 11.6669C21.2159 11.6691 21.0377 11.6832 20.861 11.7091C20.8175 11.9315 20.7954 12.1575 20.7949 12.384C20.7949 12.838 20.8851 13.2876 21.0602 13.707C21.2354 14.1264 21.4921 14.5074 21.8157 14.8282C22.1393 15.149 22.5234 15.4034 22.9461 15.5767C23.3687 15.75 23.8217 15.8389 24.279 15.8383H24.4348C25.9461 15.8383 27.3958 15.2432 28.4657 14.1836C29.5357 13.1239 30.1387 11.6862 30.1425 10.1858Z" fill="white"/>
</svg>
