<svg id="Camada_1" data-name="Camada 1" xmlns="http://www.w3.org/2000/svg" viewBox="0 0 423.64 59.74"><defs><style>.cls-1{fill:#f6a117;}.cls-2{fill:#fff;}</style></defs><path class="cls-1" d="M96.67,59.57a21.94,21.94,0,0,0,11.38-2.83,15.7,15.7,0,0,0,6.81-7.84l-10.53-5.37q-2.65,5.22-7.73,5.23a8.1,8.1,0,0,1-6-2.47,9.41,9.41,0,0,1-2.4-6.84,9.17,9.17,0,0,1,2.4-6.73,8.14,8.14,0,0,1,6-2.43q5.09,0,7.73,5.22l10.53-5.37a15.7,15.7,0,0,0-6.81-7.84,22,22,0,0,0-11.38-2.83A25.36,25.36,0,0,0,85.14,22,18.86,18.86,0,0,0,74.4,39.45,19.09,19.09,0,0,0,85.14,57a25.11,25.11,0,0,0,11.53,2.58"/><path class="cls-2" d="M278.81,20.12h-13.6v38.8h13.6ZM22.93,31.5a26.58,26.58,0,0,1,3.08.22V19.47a20.57,20.57,0,0,0-7.63,1.33,12.63,12.63,0,0,0-5.4,4V20.12H0v38.8h13.6V41.1q0-4.87,2.47-7.24a9.52,9.52,0,0,1,6.84-2.36m31.14,15a6.3,6.3,0,0,1-2.58,3.36A7.54,7.54,0,0,1,47.34,51a5.82,5.82,0,0,1-3.72-1.08A3.44,3.44,0,0,1,42.26,47q0-3.94,5.94-3.94h5.87ZM55,58.92H67.67V37.37q0-9.09-5.08-13.49T47.84,19.47a37.18,37.18,0,0,0-9.27,1.19A25.25,25.25,0,0,0,30.73,24l4.58,9.24a15.18,15.18,0,0,1,4.87-2.47,18.81,18.81,0,0,1,5.66-.89q7.88,0,8.23,6.15H46.34q-8.81,0-13,3.05a9.91,9.91,0,0,0-4.23,8.55,11.22,11.22,0,0,0,1.69,6.12,11.57,11.57,0,0,0,5,4.26,18,18,0,0,0,7.81,1.58q8.52,0,11.45-5.66ZM106.47,2.65a11.19,11.19,0,0,0-.16-2,.52.52,0,0,0-.37-.42,10.85,10.85,0,0,0-1.55-.11,12.1,12.1,0,0,0-11.3,7.79,7.33,7.33,0,0,0-5.15-2.1,8.47,8.47,0,0,0-1.13.09,7.64,7.64,0,0,0-.14,1.44,7.37,7.37,0,0,0,7.38,7.37h.33A12.09,12.09,0,0,0,106.47,2.65m41.11,56.27h13.6V36.73q0-8.67-4.4-13t-11.64-4.3a18.89,18.89,0,0,0-6.44,1.08,14.67,14.67,0,0,0-5.23,3.15V5.8h-13.6V58.92h13.6V40.17q0-4.59,2.11-6.88A7.27,7.27,0,0,1,141.2,31q6.38,0,6.38,8Zm44.89-12.45a6.39,6.39,0,0,1-2.58,3.36A7.59,7.59,0,0,1,185.74,51,5.85,5.85,0,0,1,182,49.9,3.47,3.47,0,0,1,180.65,47q0-3.94,5.95-3.94h5.87Zm.93,12.45h12.67V37.37q0-9.09-5.08-13.49t-14.75-4.41A37.07,37.07,0,0,0,177,20.66,25.15,25.15,0,0,0,169.13,24l4.58,9.24a15.07,15.07,0,0,1,4.87-2.47,18.7,18.7,0,0,1,5.65-.89q7.88,0,8.24,6.15h-7.74q-8.8,0-13,3.05a9.93,9.93,0,0,0-4.22,8.55,11.3,11.3,0,0,0,1.68,6.12,11.54,11.54,0,0,0,5,4.26,17.88,17.88,0,0,0,7.8,1.58q8.52,0,11.46-5.66Zm49.68-19.47a9.67,9.67,0,0,1-2.29,6.84,7.6,7.6,0,0,1-5.8,2.47,7.69,7.69,0,0,1-5.87-2.47,9.67,9.67,0,0,1-2.29-6.84,9.42,9.42,0,0,1,2.29-6.73A7.73,7.73,0,0,1,235,30.28a7.61,7.61,0,0,1,5.84,2.44,9.54,9.54,0,0,1,2.25,6.73m.43,19.47h13V5.8h-13.6V23.48q-3.8-4-10.74-4a19.57,19.57,0,0,0-9.67,2.44,17.71,17.71,0,0,0-6.91,7A21.32,21.32,0,0,0,213,39.45a21.56,21.56,0,0,0,2.54,10.6,18,18,0,0,0,6.91,7.05,19.38,19.38,0,0,0,9.67,2.47q7.59,0,11.38-4.51ZM278,13.71a6.94,6.94,0,0,0,2.29-5.33A6.34,6.34,0,0,0,278,3.33a8.92,8.92,0,0,0-6-2,8.61,8.61,0,0,0-6,2.08,6.69,6.69,0,0,0-2.29,5.15A6.72,6.72,0,0,0,266,13.75a8.65,8.65,0,0,0,6,2.07,8.51,8.51,0,0,0,6-2.11m37.3,45.21h13.61V36.73q0-8.67-4.41-13t-11.63-4.3A18.33,18.33,0,0,0,306,20.73a15.46,15.46,0,0,0-5.45,3.61V20.12H287.62v38.8h13.6V40.17q0-4.59,2.11-6.88A7.27,7.27,0,0,1,309,31q6.38,0,6.37,8Zm49.83,0h13.61V36.73q0-8.67-4.41-13t-11.63-4.3a18.89,18.89,0,0,0-6.44,1.08,14.67,14.67,0,0,0-5.23,3.15V5.8h-13.6V58.92h13.6V40.17q0-4.59,2.11-6.88A7.27,7.27,0,0,1,358.78,31q6.38,0,6.37,8Zm44.9-12.45a6.39,6.39,0,0,1-2.58,3.36A7.59,7.59,0,0,1,403.32,51a5.85,5.85,0,0,1-3.73-1.08A3.47,3.47,0,0,1,398.23,47q0-3.94,5.94-3.94h5.88Zm13.6,12.45V37.37q0-9.09-5.08-13.49t-14.75-4.41a37.2,37.2,0,0,0-9.28,1.19A25.19,25.19,0,0,0,386.71,24l4.58,9.24a15.07,15.07,0,0,1,4.87-2.47,18.7,18.7,0,0,1,5.65-.89q7.88,0,8.24,6.15h-7.74q-8.81,0-13,3.05a9.93,9.93,0,0,0-4.22,8.55,11.3,11.3,0,0,0,1.68,6.12,11.54,11.54,0,0,0,5,4.26,17.88,17.88,0,0,0,7.8,1.58q8.52,0,11.46-5.66v5Z"/></svg>