<svg id="Camada_1" data-name="Camada 1" xmlns="http://www.w3.org/2000/svg" viewBox="0 0 423.64 59.74"><defs><style>.cls-1{fill:#f6a117;}.cls-2{fill:#3c8634;}</style></defs><path class="cls-1" d="M96.65,59.58A22,22,0,0,0,108,56.75a15.6,15.6,0,0,0,6.8-7.84l-10.52-5.37q-2.66,5.24-7.74,5.23a8.07,8.07,0,0,1-6-2.47,9.4,9.4,0,0,1-2.4-6.84,9.19,9.19,0,0,1,2.4-6.73,8.15,8.15,0,0,1,6-2.43q5.08,0,7.74,5.23l10.52-5.37a15.64,15.64,0,0,0-6.8-7.84,22,22,0,0,0-11.39-2.83A25.47,25.47,0,0,0,85.13,22,18.89,18.89,0,0,0,74.39,39.46,19.09,19.09,0,0,0,85.13,57a25.23,25.23,0,0,0,11.52,2.57"/><path class="cls-2" d="M278.8,20.13H265.19V58.94H278.8ZM22.91,31.52a28.46,28.46,0,0,1,3.08.21V19.49a20.61,20.61,0,0,0-7.63,1.32,12.71,12.71,0,0,0-5.4,4V20.13H0V58.94H13.6V41.11c0-3.24.83-5.66,2.47-7.23a9.48,9.48,0,0,1,6.84-2.36m31.15,15a6.46,6.46,0,0,1-2.58,3.37A7.58,7.58,0,0,1,47.33,51a5.91,5.91,0,0,1-3.73-1.07,3.49,3.49,0,0,1-1.36-2.87q0-3.93,5.94-3.93h5.88ZM55,58.94H67.66V37.39q0-9.09-5.08-13.5t-14.75-4.4a37.19,37.19,0,0,0-9.28,1.18A25.6,25.6,0,0,0,30.71,24l4.59,9.24a14.88,14.88,0,0,1,4.87-2.47,18.72,18.72,0,0,1,5.65-.9q7.88,0,8.24,6.16H46.32q-8.8,0-13,3a10,10,0,0,0-4.22,8.56,11.3,11.3,0,0,0,1.68,6.12,11.54,11.54,0,0,0,5,4.26,17.88,17.88,0,0,0,7.8,1.57q8.52,0,11.46-5.65ZM106.46,2.66a12.11,12.11,0,0,0-.16-2,.55.55,0,0,0-.38-.43,12.42,12.42,0,0,0-1.55-.11A12.08,12.08,0,0,0,93.08,8a7.36,7.36,0,0,0-5.15-2.11A7,7,0,0,0,86.8,6,7.33,7.33,0,0,0,94,14.76h.33a12.1,12.1,0,0,0,12.1-12.1m41.1,56.28h13.6V36.74q0-8.66-4.4-13t-11.63-4.29a19.19,19.19,0,0,0-6.45,1.07,14.92,14.92,0,0,0-5.22,3.15V5.81H119.85V58.94h13.61V40.18c0-3,.7-5.35,2.11-6.87A7.25,7.25,0,0,1,141.19,31q6.38,0,6.37,7.94Zm44.89-12.46a6.36,6.36,0,0,1-2.58,3.37A7.53,7.53,0,0,1,185.72,51,5.88,5.88,0,0,1,182,49.92a3.46,3.46,0,0,1-1.36-2.87q0-3.93,5.94-3.93h5.87Zm.93,12.46h12.67V37.39q0-9.09-5.08-13.5t-14.75-4.4A37.17,37.17,0,0,0,177,20.67,25.49,25.49,0,0,0,169.11,24l4.58,9.24a15,15,0,0,1,4.87-2.47,18.83,18.83,0,0,1,5.66-.9q7.88,0,8.23,6.16h-7.73q-8.81,0-13,3a9.93,9.93,0,0,0-4.23,8.56,11.22,11.22,0,0,0,1.69,6.12,11.57,11.57,0,0,0,5,4.26,18,18,0,0,0,7.81,1.57q8.52,0,11.45-5.65Zm49.69-19.48a9.7,9.7,0,0,1-2.29,6.84,8.13,8.13,0,0,1-11.67,0,9.65,9.65,0,0,1-2.29-6.84,9.44,9.44,0,0,1,2.29-6.73A7.69,7.69,0,0,1,235,30.3a7.59,7.59,0,0,1,5.83,2.43,9.51,9.51,0,0,1,2.26,6.73m.43,19.48h13V5.81H242.85V23.5q-3.79-4-10.74-4a19.52,19.52,0,0,0-9.66,2.43,17.71,17.71,0,0,0-6.91,7A21.35,21.35,0,0,0,213,39.46a21.53,21.53,0,0,0,2.54,10.6,17.76,17.76,0,0,0,6.91,7,19.24,19.24,0,0,0,9.66,2.47q7.59,0,11.39-4.51ZM278,13.72a6.91,6.91,0,0,0,2.29-5.33A6.36,6.36,0,0,0,278,3.34a8.92,8.92,0,0,0-6-2,8.63,8.63,0,0,0-6,2.08,6.67,6.67,0,0,0-2.29,5.16A6.65,6.65,0,0,0,266,13.76a9.66,9.66,0,0,0,12,0m37.3,45.22h13.6V36.74q0-8.66-4.4-13c-2.94-2.86-6.81-4.29-11.64-4.29A18.53,18.53,0,0,0,306,20.74a15.45,15.45,0,0,0-5.44,3.62V20.13h-13V58.94h13.6V40.18c0-3,.71-5.35,2.12-6.87A7.25,7.25,0,0,1,308.94,31q6.36,0,6.37,7.94Zm49.83,0h13.6V36.74q0-8.66-4.4-13t-11.63-4.29a19.23,19.23,0,0,0-6.45,1.07A15,15,0,0,0,351,23.71V5.81H337.43V58.94H351V40.18c0-3,.7-5.35,2.11-6.87A7.27,7.27,0,0,1,358.77,31q6.38,0,6.37,7.94ZM410,46.48a6.36,6.36,0,0,1-2.58,3.37A7.53,7.53,0,0,1,403.3,51a5.88,5.88,0,0,1-3.72-1.07,3.46,3.46,0,0,1-1.36-2.87q0-3.93,5.94-3.93H410Zm13.61,12.46V37.39q0-9.09-5.09-13.5t-14.75-4.4a37.17,37.17,0,0,0-9.27,1.18A25.49,25.49,0,0,0,386.69,24l4.58,9.24a15,15,0,0,1,4.87-2.47,18.83,18.83,0,0,1,5.66-.9q7.88,0,8.23,6.16H402.3q-8.81,0-13,3A9.93,9.93,0,0,0,385,47.63a11.22,11.22,0,0,0,1.69,6.12,11.57,11.57,0,0,0,5,4.26,18,18,0,0,0,7.81,1.57q8.52,0,11.45-5.65v5Z"/></svg>